<svg xmlns="http://www.w3.org/2000/svg" width="960" height="640" viewBox="0 0 960 640">
<style>
text { font-family: Arial, Helvetica, sans-serif; fill: #172033; }
.title { font-size: 25px; font-weight: 700; }
.label { font-size: 16px; font-weight: 600; }
.tick { font-size: 13px; fill: #526071; }
.grid { stroke: #d8dee8; stroke-width: 1; }
.axis { stroke: #172033; stroke-width: 1.4; }
.shade { fill: #1f77b4; opacity: 0.18; }
.line { fill: none; stroke: #1f77b4; stroke-width: 3; }
.point { fill: #d62728; stroke: white; stroke-width: 1.5; }
</style>
<rect width="960" height="640" fill="#ffffff"/>
<text class="title" x="480" y="38" text-anchor="middle">MLP Output Mean Concentration</text>
<line class="axis" x1="96" y1="548" x2="924" y2="548"/>
<line class="axis" x1="96" y1="68" x2="96" y2="548"/>
<line class="grid" x1="96.00" y1="68" x2="96.00" y2="548"/>
<line class="axis" x1="96.00" y1="548" x2="96.00" y2="554"/>
<text class="tick" x="96.00" y="573" text-anchor="middle">1</text>
<line class="grid" x1="151.20" y1="68" x2="151.20" y2="548"/>
<line class="axis" x1="151.20" y1="548" x2="151.20" y2="554"/>
<text class="tick" x="151.20" y="573" text-anchor="middle">2</text>
<line class="grid" x1="206.40" y1="68" x2="206.40" y2="548"/>
<line class="axis" x1="206.40" y1="548" x2="206.40" y2="554"/>
<text class="tick" x="206.40" y="573" text-anchor="middle">3</text>
<line class="grid" x1="261.60" y1="68" x2="261.60" y2="548"/>
<line class="axis" x1="261.60" y1="548" x2="261.60" y2="554"/>
<text class="tick" x="261.60" y="573" text-anchor="middle">4</text>
<line class="grid" x1="316.80" y1="68" x2="316.80" y2="548"/>
<line class="axis" x1="316.80" y1="548" x2="316.80" y2="554"/>
<text class="tick" x="316.80" y="573" text-anchor="middle">5</text>
<line class="grid" x1="372.00" y1="68" x2="372.00" y2="548"/>
<line class="axis" x1="372.00" y1="548" x2="372.00" y2="554"/>
<text class="tick" x="372.00" y="573" text-anchor="middle">6</text>
<line class="grid" x1="427.20" y1="68" x2="427.20" y2="548"/>
<line class="axis" x1="427.20" y1="548" x2="427.20" y2="554"/>
<text class="tick" x="427.20" y="573" text-anchor="middle">7</text>
<line class="grid" x1="482.40" y1="68" x2="482.40" y2="548"/>
<line class="axis" x1="482.40" y1="548" x2="482.40" y2="554"/>
<text class="tick" x="482.40" y="573" text-anchor="middle">8</text>
<line class="grid" x1="537.60" y1="68" x2="537.60" y2="548"/>
<line class="axis" x1="537.60" y1="548" x2="537.60" y2="554"/>
<text class="tick" x="537.60" y="573" text-anchor="middle">9</text>
<line class="grid" x1="592.80" y1="68" x2="592.80" y2="548"/>
<line class="axis" x1="592.80" y1="548" x2="592.80" y2="554"/>
<text class="tick" x="592.80" y="573" text-anchor="middle">10</text>
<line class="grid" x1="648.00" y1="68" x2="648.00" y2="548"/>
<line class="axis" x1="648.00" y1="548" x2="648.00" y2="554"/>
<text class="tick" x="648.00" y="573" text-anchor="middle">11</text>
<line class="grid" x1="703.20" y1="68" x2="703.20" y2="548"/>
<line class="axis" x1="703.20" y1="548" x2="703.20" y2="554"/>
<text class="tick" x="703.20" y="573" text-anchor="middle">12</text>
<line class="grid" x1="758.40" y1="68" x2="758.40" y2="548"/>
<line class="axis" x1="758.40" y1="548" x2="758.40" y2="554"/>
<text class="tick" x="758.40" y="573" text-anchor="middle">13</text>
<line class="grid" x1="813.60" y1="68" x2="813.60" y2="548"/>
<line class="axis" x1="813.60" y1="548" x2="813.60" y2="554"/>
<text class="tick" x="813.60" y="573" text-anchor="middle">14</text>
<line class="grid" x1="868.80" y1="68" x2="868.80" y2="548"/>
<line class="axis" x1="868.80" y1="548" x2="868.80" y2="554"/>
<text class="tick" x="868.80" y="573" text-anchor="middle">15</text>
<line class="grid" x1="924.00" y1="68" x2="924.00" y2="548"/>
<line class="axis" x1="924.00" y1="548" x2="924.00" y2="554"/>
<text class="tick" x="924.00" y="573" text-anchor="middle">16</text>
<line class="grid" x1="96" y1="548.00" x2="924" y2="548.00"/>
<line class="axis" x1="90" y1="548.00" x2="96" y2="548.00"/>
<text class="tick" x="84" y="552.00" text-anchor="end">-39.23</text>
<line class="grid" x1="96" y1="452.00" x2="924" y2="452.00"/>
<line class="axis" x1="90" y1="452.00" x2="96" y2="452.00"/>
<text class="tick" x="84" y="456.00" text-anchor="end">-36.57</text>
<line class="grid" x1="96" y1="356.00" x2="924" y2="356.00"/>
<line class="axis" x1="90" y1="356.00" x2="96" y2="356.00"/>
<text class="tick" x="84" y="360.00" text-anchor="end">-33.92</text>
<line class="grid" x1="96" y1="260.00" x2="924" y2="260.00"/>
<line class="axis" x1="90" y1="260.00" x2="96" y2="260.00"/>
<text class="tick" x="84" y="264.00" text-anchor="end">-31.27</text>
<line class="grid" x1="96" y1="164.00" x2="924" y2="164.00"/>
<line class="axis" x1="90" y1="164.00" x2="96" y2="164.00"/>
<text class="tick" x="84" y="168.00" text-anchor="end">-28.61</text>
<line class="grid" x1="96" y1="68.00" x2="924" y2="68.00"/>
<line class="axis" x1="90" y1="68.00" x2="96" y2="68.00"/>
<text class="tick" x="84" y="72.00" text-anchor="end">-25.96</text>
<polygon class="shade" points="96.00,101.10 151.20,132.90 206.40,150.71 261.60,183.85 316.80,197.70 372.00,230.66 427.20,250.95 482.40,268.49 537.60,304.31 592.80,336.97 648.00,362.14 703.20,380.43 758.40,402.07 813.60,431.22 868.80,454.02 924.00,474.47 924.00,514.90 868.80,484.17 813.60,455.16 758.40,424.58 703.20,406.41 648.00,394.74 592.80,366.54 537.60,336.71 482.40,318.49 427.20,285.65 372.00,255.02 316.80,230.81 261.60,211.02 206.40,188.09 151.20,155.42 96.00,136.91"/>
<polyline class="line" points="96.00,119.00 151.20,144.16 206.40,169.40 261.60,197.44 316.80,214.25 372.00,242.84 427.20,268.30 482.40,293.49 537.60,320.51 592.80,351.75 648.00,378.44 703.20,393.42 758.40,413.32 813.60,443.19 868.80,469.09 924.00,494.69"/>
<circle class="point" cx="96.00" cy="119.00" r="4.5"/>
<circle class="point" cx="151.20" cy="144.16" r="4.5"/>
<circle class="point" cx="206.40" cy="169.40" r="4.5"/>
<circle class="point" cx="261.60" cy="197.44" r="4.5"/>
<circle class="point" cx="316.80" cy="214.25" r="4.5"/>
<circle class="point" cx="372.00" cy="242.84" r="4.5"/>
<circle class="point" cx="427.20" cy="268.30" r="4.5"/>
<circle class="point" cx="482.40" cy="293.49" r="4.5"/>
<circle class="point" cx="537.60" cy="320.51" r="4.5"/>
<circle class="point" cx="592.80" cy="351.75" r="4.5"/>
<circle class="point" cx="648.00" cy="378.44" r="4.5"/>
<circle class="point" cx="703.20" cy="393.42" r="4.5"/>
<circle class="point" cx="758.40" cy="413.32" r="4.5"/>
<circle class="point" cx="813.60" cy="443.19" r="4.5"/>
<circle class="point" cx="868.80" cy="469.09" r="4.5"/>
<circle class="point" cx="924.00" cy="494.69" r="4.5"/>
<text class="label" x="480" y="604" text-anchor="middle">k, where m = 2^k</text>
<text class="label" transform="translate(28 320) rotate(-90)" text-anchor="middle">mean log ||mu_k - mu||_2^2</text>
<text class="tick" x="480" y="630" text-anchor="middle">natural logs; shaded band is +/- one standard deviation across runs</text>
</svg>