<svg xmlns="http://www.w3.org/2000/svg" width="960" height="640" viewBox="0 0 960 640">
<style>
text { font-family: Arial, Helvetica, sans-serif; fill: #172033; }
.title { font-size: 25px; font-weight: 700; }
.label { font-size: 16px; font-weight: 600; }
.tick { font-size: 13px; fill: #526071; }
.grid { stroke: #d8dee8; stroke-width: 1; }
.axis { stroke: #172033; stroke-width: 1.4; }
.line { fill: none; stroke: #1f77b4; stroke-width: 3; }
.point { fill: #d62728; stroke: white; stroke-width: 1.5; }
</style>
<rect width="960" height="640" fill="#ffffff"/>
<text class="title" x="480" y="38" text-anchor="middle">MLP Output Mean Concentration</text>
<line class="axis" x1="96" y1="548" x2="924" y2="548"/>
<line class="axis" x1="96" y1="68" x2="96" y2="548"/>
<line class="grid" x1="96.00" y1="68" x2="96.00" y2="548"/>
<line class="axis" x1="96.00" y1="548" x2="96.00" y2="554"/>
<text class="tick" x="96.00" y="573" text-anchor="middle">0.00</text>
<line class="grid" x1="303.00" y1="68" x2="303.00" y2="548"/>
<line class="axis" x1="303.00" y1="548" x2="303.00" y2="554"/>
<text class="tick" x="303.00" y="573" text-anchor="middle">0.69</text>
<line class="grid" x1="510.00" y1="68" x2="510.00" y2="548"/>
<line class="axis" x1="510.00" y1="548" x2="510.00" y2="554"/>
<text class="tick" x="510.00" y="573" text-anchor="middle">1.39</text>
<line class="grid" x1="717.00" y1="68" x2="717.00" y2="548"/>
<line class="axis" x1="717.00" y1="548" x2="717.00" y2="554"/>
<text class="tick" x="717.00" y="573" text-anchor="middle">2.08</text>
<line class="grid" x1="924.00" y1="68" x2="924.00" y2="548"/>
<line class="axis" x1="924.00" y1="548" x2="924.00" y2="554"/>
<text class="tick" x="924.00" y="573" text-anchor="middle">2.77</text>
<line class="grid" x1="96" y1="548.00" x2="924" y2="548.00"/>
<line class="axis" x1="90" y1="548.00" x2="96" y2="548.00"/>
<text class="tick" x="84" y="552.00" text-anchor="end">-39.21</text>
<line class="grid" x1="96" y1="452.00" x2="924" y2="452.00"/>
<line class="axis" x1="90" y1="452.00" x2="96" y2="452.00"/>
<text class="tick" x="84" y="456.00" text-anchor="end">-36.64</text>
<line class="grid" x1="96" y1="356.00" x2="924" y2="356.00"/>
<line class="axis" x1="90" y1="356.00" x2="96" y2="356.00"/>
<text class="tick" x="84" y="360.00" text-anchor="end">-34.06</text>
<line class="grid" x1="96" y1="260.00" x2="924" y2="260.00"/>
<line class="axis" x1="90" y1="260.00" x2="96" y2="260.00"/>
<text class="tick" x="84" y="264.00" text-anchor="end">-31.49</text>
<line class="grid" x1="96" y1="164.00" x2="924" y2="164.00"/>
<line class="axis" x1="90" y1="164.00" x2="96" y2="164.00"/>
<text class="tick" x="84" y="168.00" text-anchor="end">-28.91</text>
<line class="grid" x1="96" y1="68.00" x2="924" y2="68.00"/>
<line class="axis" x1="90" y1="68.00" x2="96" y2="68.00"/>
<text class="tick" x="84" y="72.00" text-anchor="end">-26.34</text>
<polyline class="line" points="96.00,101.10 303.00,124.74 424.09,176.82 510.00,174.85 576.64,198.83 631.09,246.72 677.12,280.13 717.00,279.31 752.17,281.57 783.64,353.10 812.10,380.67 838.09,374.37 861.99,419.63 884.12,442.54 904.73,477.27 924.00,514.90"/>
<circle class="point" cx="96.00" cy="101.10" r="4.5"/>
<circle class="point" cx="303.00" cy="124.74" r="4.5"/>
<circle class="point" cx="424.09" cy="176.82" r="4.5"/>
<circle class="point" cx="510.00" cy="174.85" r="4.5"/>
<circle class="point" cx="576.64" cy="198.83" r="4.5"/>
<circle class="point" cx="631.09" cy="246.72" r="4.5"/>
<circle class="point" cx="677.12" cy="280.13" r="4.5"/>
<circle class="point" cx="717.00" cy="279.31" r="4.5"/>
<circle class="point" cx="752.17" cy="281.57" r="4.5"/>
<circle class="point" cx="783.64" cy="353.10" r="4.5"/>
<circle class="point" cx="812.10" cy="380.67" r="4.5"/>
<circle class="point" cx="838.09" cy="374.37" r="4.5"/>
<circle class="point" cx="861.99" cy="419.63" r="4.5"/>
<circle class="point" cx="884.12" cy="442.54" r="4.5"/>
<circle class="point" cx="904.73" cy="477.27" r="4.5"/>
<circle class="point" cx="924.00" cy="514.90" r="4.5"/>
<text class="label" x="480" y="604" text-anchor="middle">log(k), where m = 2^k</text>
<text class="label" transform="translate(28 320) rotate(-90)" text-anchor="middle">log ||mu_k - mu||_2^2</text>
<text class="tick" x="480" y="630" text-anchor="middle">natural logs; true mean estimated using 1,000,000 samples</text>
</svg>