<svg xmlns="http://www.w3.org/2000/svg" width="960" height="640" viewBox="0 0 960 640">
<style>
text { font-family: Arial, Helvetica, sans-serif; fill: #172033; }
.title { font-size: 25px; font-weight: 700; }
.label { font-size: 16px; font-weight: 600; }
.tick { font-size: 13px; fill: #526071; }
.grid { stroke: #d8dee8; stroke-width: 1; }
.axis { stroke: #172033; stroke-width: 1.4; }
.line { fill: none; stroke: #1f77b4; stroke-width: 3; }
.point { fill: #d62728; stroke: white; stroke-width: 1.5; }
</style>
<rect width="960" height="640" fill="#ffffff"/>
<text class="title" x="480" y="38" text-anchor="middle">MLP Activation Effective Rank (Gaussian Input)</text>
<line class="axis" x1="96" y1="548" x2="924" y2="548"/>
<line class="axis" x1="96" y1="68" x2="96" y2="548"/>
<line class="grid" x1="96.00" y1="68" x2="96.00" y2="548"/>
<line class="axis" x1="96.00" y1="548" x2="96.00" y2="554"/>
<text class="tick" x="96.00" y="573" text-anchor="middle">0</text>
<line class="grid" x1="199.50" y1="68" x2="199.50" y2="548"/>
<line class="axis" x1="199.50" y1="548" x2="199.50" y2="554"/>
<text class="tick" x="199.50" y="573" text-anchor="middle">1</text>
<line class="grid" x1="303.00" y1="68" x2="303.00" y2="548"/>
<line class="axis" x1="303.00" y1="548" x2="303.00" y2="554"/>
<text class="tick" x="303.00" y="573" text-anchor="middle">2</text>
<line class="grid" x1="406.50" y1="68" x2="406.50" y2="548"/>
<line class="axis" x1="406.50" y1="548" x2="406.50" y2="554"/>
<text class="tick" x="406.50" y="573" text-anchor="middle">3</text>
<line class="grid" x1="510.00" y1="68" x2="510.00" y2="548"/>
<line class="axis" x1="510.00" y1="548" x2="510.00" y2="554"/>
<text class="tick" x="510.00" y="573" text-anchor="middle">4</text>
<line class="grid" x1="613.50" y1="68" x2="613.50" y2="548"/>
<line class="axis" x1="613.50" y1="548" x2="613.50" y2="554"/>
<text class="tick" x="613.50" y="573" text-anchor="middle">5</text>
<line class="grid" x1="717.00" y1="68" x2="717.00" y2="548"/>
<line class="axis" x1="717.00" y1="548" x2="717.00" y2="554"/>
<text class="tick" x="717.00" y="573" text-anchor="middle">6</text>
<line class="grid" x1="820.50" y1="68" x2="820.50" y2="548"/>
<line class="axis" x1="820.50" y1="548" x2="820.50" y2="554"/>
<text class="tick" x="820.50" y="573" text-anchor="middle">7</text>
<line class="grid" x1="924.00" y1="68" x2="924.00" y2="548"/>
<line class="axis" x1="924.00" y1="548" x2="924.00" y2="554"/>
<text class="tick" x="924.00" y="573" text-anchor="middle">8</text>
<line class="grid" x1="96" y1="548.00" x2="924" y2="548.00"/>
<line class="axis" x1="90" y1="548.00" x2="96" y2="548.00"/>
<text class="tick" x="84" y="552.00" text-anchor="end">0.0</text>
<line class="grid" x1="96" y1="452.00" x2="924" y2="452.00"/>
<line class="axis" x1="90" y1="452.00" x2="96" y2="452.00"/>
<text class="tick" x="84" y="456.00" text-anchor="end">28.1</text>
<line class="grid" x1="96" y1="356.00" x2="924" y2="356.00"/>
<line class="axis" x1="90" y1="356.00" x2="96" y2="356.00"/>
<text class="tick" x="84" y="360.00" text-anchor="end">56.1</text>
<line class="grid" x1="96" y1="260.00" x2="924" y2="260.00"/>
<line class="axis" x1="90" y1="260.00" x2="96" y2="260.00"/>
<text class="tick" x="84" y="264.00" text-anchor="end">84.2</text>
<line class="grid" x1="96" y1="164.00" x2="924" y2="164.00"/>
<line class="axis" x1="90" y1="164.00" x2="96" y2="164.00"/>
<text class="tick" x="84" y="168.00" text-anchor="end">112.2</text>
<line class="grid" x1="96" y1="68.00" x2="924" y2="68.00"/>
<line class="axis" x1="90" y1="68.00" x2="96" y2="68.00"/>
<text class="tick" x="84" y="72.00" text-anchor="end">140.3</text>
<polyline class="line" points="96.00,111.64 199.50,255.48 303.00,341.10 406.50,395.21 510.00,437.82 613.50,451.78 717.00,472.85 820.50,487.53 924.00,504.89"/>
<circle class="point" cx="96.00" cy="111.64" r="5"/>
<circle class="point" cx="199.50" cy="255.48" r="5"/>
<circle class="point" cx="303.00" cy="341.10" r="5"/>
<circle class="point" cx="406.50" cy="395.21" r="5"/>
<circle class="point" cx="510.00" cy="437.82" r="5"/>
<circle class="point" cx="613.50" cy="451.78" r="5"/>
<circle class="point" cx="717.00" cy="472.85" r="5"/>
<circle class="point" cx="820.50" cy="487.53" r="5"/>
<circle class="point" cx="924.00" cy="504.89" r="5"/>
<text class="label" x="480" y="604" text-anchor="middle">layer i</text>
<text class="label" transform="translate(28 320) rotate(-90)" text-anchor="middle">effective rank R_i</text>
<text class="tick" x="480" y="630" text-anchor="middle">R_i = (sum_j sigma_j)^2 / sum_j sigma_j^2; batch size 8192</text>
</svg>